<?xml version="1.0" encoding="UTF-8"?>
<svg width="55px" height="56px" viewBox="0 0 55 56" version="1.1" xmlns="http://www.w3.org/2000/svg" xmlns:xlink="http://www.w3.org/1999/xlink">
    <!-- Generator: Sketch 45.1 (43504) - http://www.bohemiancoding.com/sketch -->
    <title>Group 10</title>
    <desc>Created with Sketch.</desc>
    <defs></defs>
    <g id="Page-1" stroke="none" stroke-width="1" fill="none" fill-rule="evenodd">
        <g id="1-copy-20" transform="translate(-577.000000, -660.000000)">
            <g id="Group-10" transform="translate(578.000000, 661.000000)">
                <path d="M53.0870064,26.9826377 C53.0870064,41.6825284 41.2691309,53.5990978 26.6909859,53.5990978 C12.1128408,53.5990978 0.294965365,41.6825284 0.294965365,26.9826377 C0.294965365,12.282747 12.1128408,0.366177518 26.6909859,0.366177518 C41.2691309,0.366177518 53.0870064,12.282747 53.0870064,26.9826377 Z" id="Stroke-65" stroke="#4A4A4A" fill="#FFFFFF" stroke-linecap="round" stroke-linejoin="round"></path>
                <g id="Group-6" transform="translate(18.749413, 33.905065)" stroke="#4A4A4A" stroke-linecap="round" stroke-linejoin="round">
                    <path d="M0.399852742,4.50694993 C0.399852742,4.50694993 4.17071281,0.704598478 7.94157288,0.704598478 C11.712433,0.704598478 15.483293,4.50694993 15.483293,4.50694993" id="Stroke-66"></path>
                </g>
                <path d="M37.2333333,14 C37.9166,14 38.4666667,14.5500667 38.4666667,15.2333333 L38.4666667,22.6333333 C38.4666667,23.3166 37.9166,23.8666667 37.2333333,23.8666667 C36.5500667,23.8666667 36,23.3166 36,22.6333333 L36,15.2333333 C36,14.5500667 36.5500667,14 37.2333333,14 Z" id="Path" fill="#404041"></path>
                <path d="M15.2333333,14 C15.9166,14 16.4666667,14.5500667 16.4666667,15.2333333 L16.4666667,22.6333333 C16.4666667,23.3166 15.9166,23.8666667 15.2333333,23.8666667 C14.5500667,23.8666667 14,23.3166 14,22.6333333 L14,15.2333333 C14,14.5500667 14.5500667,14 15.2333333,14 Z" id="Path" fill="#404041"></path>
            </g>
        </g>
    </g>
</svg>