<?xml version="1.0" encoding="UTF-8"?>
<svg width="54px" height="56px" viewBox="0 0 54 56" version="1.1" xmlns="http://www.w3.org/2000/svg" xmlns:xlink="http://www.w3.org/1999/xlink">
    <!-- Generator: Sketch 45.1 (43504) - http://www.bohemiancoding.com/sketch -->
    <title>Group 13</title>
    <desc>Created with Sketch.</desc>
    <defs></defs>
    <g id="Page-1" stroke="none" stroke-width="1" fill="none" fill-rule="evenodd">
        <g id="1-copy-20" transform="translate(-822.000000, -660.000000)">
            <g id="Group-13" transform="translate(822.000000, 661.000000)">
                <path d="M53.4946035,26.9826377 C53.4946035,41.6825284 41.6767281,53.5990978 27.098583,53.5990978 C12.520438,53.5990978 0.702562546,41.6825284 0.702562546,26.9826377 C0.702562546,12.282747 12.520438,0.366177518 27.098583,0.366177518 C41.6767281,0.366177518 53.4946035,12.282747 53.4946035,26.9826377 Z" id="Stroke-49" stroke="#404041" fill="#FFFFFF" stroke-linecap="round" stroke-linejoin="round"></path>
                <path d="M15.7860028,34.6096636 C15.7860028,34.6096636 19.5568629,42.2143665 27.098583,42.2143665 C34.6403032,42.2143665 38.4111633,34.6096636 38.4111633,34.6096636" id="Stroke-50" stroke="#4A4A4A" stroke-linecap="round" stroke-linejoin="round"></path>
                <path d="M38.2333333,14 C38.9166,14 39.4666667,14.5500667 39.4666667,15.2333333 L39.4666667,22.6333333 C39.4666667,23.3166 38.9166,23.8666667 38.2333333,23.8666667 C37.5500667,23.8666667 37,23.3166 37,22.6333333 L37,15.2333333 C37,14.5500667 37.5500667,14 38.2333333,14 Z" id="Path-Copy-5" fill="#404041"></path>
                <path d="M15.2333333,14 C15.9166,14 16.4666667,14.5500667 16.4666667,15.2333333 L16.4666667,22.6333333 C16.4666667,23.3166 15.9166,23.8666667 15.2333333,23.8666667 C14.5500667,23.8666667 14,23.3166 14,22.6333333 L14,15.2333333 C14,14.5500667 14.5500667,14 15.2333333,14 Z" id="Path-Copy-6" fill="#404041"></path>
            </g>
        </g>
    </g>
</svg>