<?xml version="1.0" encoding="UTF-8"?>
<svg width="100px" height="100px" viewBox="0 0 100 100" version="1.1" xmlns="http://www.w3.org/2000/svg" xmlns:xlink="http://www.w3.org/1999/xlink">
    <!-- Generator: Sketch 46.2 (44496) - http://www.bohemiancoding.com/sketch -->
    <title>Smilie_4</title>
    <desc>Created with Sketch.</desc>
    <defs></defs>
    <g id="Page-1" stroke="none" stroke-width="1" fill="none" fill-rule="evenodd">
        <g id="Smilie_4">
            <g id="Group-11" transform="translate(6.000000, 6.000000)">
                <path d="M87.1763909,43.9717058 C87.1763909,67.9270833 67.9176309,87.3466779 44.1606538,87.3466779 C20.4036768,87.3466779 1.14491674,67.9270833 1.14491674,43.9717058 C1.14491674,20.0163284 20.4036768,0.596733733 44.1606538,0.596733733 C67.9176309,0.596733733 87.1763909,20.0163284 87.1763909,43.9717058 Z" id="Stroke-49" stroke="#404041" stroke-width="1.2" fill="#FFFFFF" stroke-linecap="round" stroke-linejoin="round"></path>
                <path d="M25.7253379,56.4009332 C25.7253379,56.4009332 31.8704432,68.7937824 44.1606538,68.7937824 C56.4508644,68.7937824 62.5959697,56.4009332 62.5959697,56.4009332" id="Stroke-50" stroke="#4A4A4A" stroke-width="1.2" stroke-linecap="round" stroke-linejoin="round"></path>
                <path d="M62.3061728,22.8148148 C63.4196444,22.8148148 64.3160494,23.7112198 64.3160494,24.8246914 L64.3160494,36.8839506 C64.3160494,37.9974222 63.4196444,38.8938272 62.3061728,38.8938272 C61.1927012,38.8938272 60.2962963,37.9974222 60.2962963,36.8839506 L60.2962963,24.8246914 C60.2962963,23.7112198 61.1927012,22.8148148 62.3061728,22.8148148 Z" id="Path-Copy-5" fill="#404041"></path>
                <path d="M24.8246914,22.8148148 C25.938163,22.8148148 26.8345679,23.7112198 26.8345679,24.8246914 L26.8345679,36.8839506 C26.8345679,37.9974222 25.938163,38.8938272 24.8246914,38.8938272 C23.7112198,38.8938272 22.8148148,37.9974222 22.8148148,36.8839506 L22.8148148,24.8246914 C22.8148148,23.7112198 23.7112198,22.8148148 24.8246914,22.8148148 Z" id="Path-Copy-6" fill="#404041"></path>
            </g>
        </g>
    </g>
</svg>