<?xml version="1.0" encoding="utf-8"?>
<!-- Generator: Adobe Illustrator 19.0.0, SVG Export Plug-In . SVG Version: 6.00 Build 0)  -->
<svg version="1.1" id="Layer_1" xmlns="http://www.w3.org/2000/svg" xmlns:xlink="http://www.w3.org/1999/xlink" x="0px" y="0px"
	 viewBox="-449 451 100 100" style="enable-background:new -449 451 100 100;" xml:space="preserve">
<style type="text/css">
	.st0{fill:#FFD73F;stroke:#4A4A4A;stroke-width:1.2;stroke-linecap:round;stroke-linejoin:round;}
	.st1{fill:#FFFFFF;stroke:#4A4A4A;stroke-linecap:round;stroke-linejoin:round;}
	.st2{fill:#404041;}
</style>
<title>smiley_very_Happy_icon_Selected</title>
<desc>Created with Sketch.</desc>
<g id="Page-1">
	<g id="smiley_very_Happy_icon_Selected">
		<g id="Group-8" transform="translate(7.000000, 7.000000)">
			<path id="Stroke-53" class="st0" d="M-358.1,494c0,26.7-21.4,48.3-47.9,48.3s-47.9-21.6-47.9-48.3c0-26.7,21.4-48.3,47.9-48.3
				S-358.1,467.3-358.1,494z"/>
			<path id="Stroke-54" class="st1" d="M-385.5,507.8c0,0-6.8,13.8-20.5,13.8s-20.5-13.8-20.5-13.8H-385.5z"/>
			<path id="Path-Copy-7" class="st2" d="M-384.4,470.4c1.2,0,2.2,1,2.2,2.2v13.4c0,1.2-1,2.2-2.2,2.2s-2.2-1-2.2-2.2v-13.4
				C-386.6,471.4-385.6,470.4-384.4,470.4z"/>
			<path id="Path-Copy-8" class="st2" d="M-426.1,470.4c1.2,0,2.2,1,2.2,2.2v13.4c0,1.2-1,2.2-2.2,2.2s-2.2-1-2.2-2.2v-13.4
				C-428.3,471.4-427.3,470.4-426.1,470.4z"/>
		</g>
	</g>
</g>
</svg>
