<?xml version="1.0" encoding="utf-8"?>
<!-- Generator: Adobe Illustrator 19.0.0, SVG Export Plug-In . SVG Version: 6.00 Build 0)  -->
<svg version="1.1" id="Layer_1" xmlns="http://www.w3.org/2000/svg" xmlns:xlink="http://www.w3.org/1999/xlink" x="0px" y="0px"
	 viewBox="-449 451 100 100" style="enable-background:new -449 451 100 100;" xml:space="preserve">
<style type="text/css">
	.st0{fill:#FFD73F;stroke:#404041;stroke-width:1.2;stroke-linecap:round;stroke-linejoin:round;}
	.st1{fill:none;stroke:#4A4A4A;stroke-width:1.2;stroke-linecap:round;stroke-linejoin:round;}
	.st2{fill:#404041;}
</style>
<title>smiley_Happy_icon_Selected</title>
<desc>Created with Sketch.</desc>
<g id="Page-1">
	<g id="smiley_Happy_icon_Selected">
		<g id="Group" transform="translate(6.000000, 6.000000)">
			<path id="Stroke-49" class="st0" d="M-357.3,495c0,26.5-21.3,48-47.7,48s-47.7-21.5-47.7-48c0-26.5,21.3-48,47.7-48
				S-357.3,468.5-357.3,495z"/>
			<path id="Stroke-50" class="st1" d="M-425.4,508.8c0,0,6.8,13.7,20.4,13.7s20.4-13.7,20.4-13.7"/>
			<path id="Path-Copy-5" class="st2" d="M-384.9,471.6c1.2,0,2.2,1,2.2,2.2v13.4c0,1.2-1,2.2-2.2,2.2c-1.2,0-2.2-1-2.2-2.2v-13.4
				C-387.1,472.6-386.1,471.6-384.9,471.6z"/>
			<path id="Path-Copy-6" class="st2" d="M-426.4,471.6c1.2,0,2.2,1,2.2,2.2v13.4c0,1.2-1,2.2-2.2,2.2c-1.2,0-2.2-1-2.2-2.2v-13.4
				C-428.6,472.6-427.7,471.6-426.4,471.6z"/>
		</g>
	</g>
</g>
</svg>
