<?xml version="1.0" encoding="UTF-8"?>
<svg width="100px" height="100px" viewBox="0 0 100 100" version="1.1" xmlns="http://www.w3.org/2000/svg" xmlns:xlink="http://www.w3.org/1999/xlink">
    <!-- Generator: Sketch 46.2 (44496) - http://www.bohemiancoding.com/sketch -->
    <title>Smilie_5</title>
    <desc>Created with Sketch.</desc>
    <defs></defs>
    <g id="Page-1" stroke="none" stroke-width="1" fill="none" fill-rule="evenodd">
        <g id="Smilie_5">
            <g id="Group-12" transform="translate(6.000000, 6.000000)">
                <path d="M87.5193157,43.9717058 C87.5193157,67.9270833 68.2605557,87.3466779 44.5035786,87.3466779 C20.7466015,87.3466779 1.48784149,67.9270833 1.48784149,43.9717058 C1.48784149,20.0163284 20.7466015,0.596733733 44.5035786,0.596733733 C68.2605557,0.596733733 87.5193157,20.0163284 87.5193157,43.9717058 Z" id="Stroke-53" stroke="#4A4A4A" stroke-width="1.2" fill="#FFFFFF" stroke-linecap="round" stroke-linejoin="round"></path>
                <path d="M62.9388945,56.4009332 C62.9388945,56.4009332 56.7937892,68.7937824 44.5035786,68.7937824 C32.213368,68.7937824 26.0682627,56.4009332 26.0682627,56.4009332 L62.9388945,56.4009332 Z" id="Stroke-54" stroke="#4A4A4A" stroke-linecap="round" stroke-linejoin="round"></path>
                <path d="M63.9358025,22.8148148 C65.0492741,22.8148148 65.945679,23.7112198 65.945679,24.8246914 L65.945679,36.8839506 C65.945679,37.9974222 65.0492741,38.8938272 63.9358025,38.8938272 C62.8223309,38.8938272 61.9259259,37.9974222 61.9259259,36.8839506 L61.9259259,24.8246914 C61.9259259,23.7112198 62.8223309,22.8148148 63.9358025,22.8148148 Z" id="Path-Copy-7" fill="#404041"></path>
                <path d="M26.454321,22.8148148 C27.5677926,22.8148148 28.4641975,23.7112198 28.4641975,24.8246914 L28.4641975,36.8839506 C28.4641975,37.9974222 27.5677926,38.8938272 26.454321,38.8938272 C25.3408494,38.8938272 24.4444444,37.9974222 24.4444444,36.8839506 L24.4444444,24.8246914 C24.4444444,23.7112198 25.3408494,22.8148148 26.454321,22.8148148 Z" id="Path-Copy-8" fill="#404041"></path>
            </g>
        </g>
    </g>
</svg>