<?xml version="1.0" encoding="UTF-8"?>
<svg width="100px" height="100px" viewBox="0 0 100 100" version="1.1" xmlns="http://www.w3.org/2000/svg" xmlns:xlink="http://www.w3.org/1999/xlink">
    <!-- Generator: Sketch 46.2 (44496) - http://www.bohemiancoding.com/sketch -->
    <title>Smilie_2_Selected</title>
    <desc>Created with Sketch.</desc>
    <defs></defs>
    <g id="Page-1" stroke="none" stroke-width="1" fill="none" fill-rule="evenodd">
        <g id="Smilie_2_Selected">
            <path d="M95,51 C95,56.3452624 94.0468556,61.4679014 92.3012554,66.2072283 C86.1110278,83.0137758 69.9553091,95 51,95 C26.6994286,95 7,75.3005714 7,51 C7,26.6994286 26.6994286,7 51,7 C75.3005714,7 95,26.6994286 95,51 Z" id="Stroke-57" stroke="#4A4A4A" stroke-width="1.2" fill="#FFD73F" stroke-linecap="round" stroke-linejoin="round"></path>
            <path d="M38,68.3033708 L63,68.3033708" id="Stroke-58" stroke="#4A4A4A" stroke-width="1.2" stroke-linecap="round" stroke-linejoin="round"></path>
            <path d="M70,28.752809 C71.108,28.752809 72,29.6347865 72,30.7303371 L72,42.5955056 C72,43.6910562 71.108,44.5730337 70,44.5730337 C68.892,44.5730337 68,43.6910562 68,42.5955056 L68,30.7303371 C68,29.6347865 68.892,28.752809 70,28.752809 Z" id="Path-Copy" fill="#404041"></path>
            <path d="M31,28.752809 C32.108,28.752809 33,29.6347865 33,30.7303371 L33,42.5955056 C33,43.6910562 32.108,44.5730337 31,44.5730337 C29.892,44.5730337 29,43.6910562 29,42.5955056 L29,30.7303371 C29,29.6347865 29.892,28.752809 31,28.752809 Z" id="Path-Copy-2" fill="#404041"></path>
        </g>
    </g>
</svg>