<?xml version="1.0" encoding="UTF-8"?>
<svg width="100px" height="100px" viewBox="0 0 100 100" version="1.1" xmlns="http://www.w3.org/2000/svg" xmlns:xlink="http://www.w3.org/1999/xlink">
    <!-- Generator: Sketch 46.2 (44496) - http://www.bohemiancoding.com/sketch -->
    <title>Smilie_3</title>
    <desc>Created with Sketch.</desc>
    <defs></defs>
    <g id="Page-1" stroke="none" stroke-width="1" fill="none" fill-rule="evenodd">
        <g id="Smilie_3">
            <g id="Group-10" transform="translate(6.000000, 6.000000)">
                <path d="M86.9063746,43.9717058 C86.9063746,67.9270833 67.6476145,87.3466779 43.8906375,87.3466779 C20.1336604,87.3466779 0.874900352,67.9270833 0.874900352,43.9717058 C0.874900352,20.0163284 20.1336604,0.596733733 43.8906375,0.596733733 C67.6476145,0.596733733 86.9063746,20.0163284 86.9063746,43.9717058 Z" id="Stroke-61" stroke="#4A4A4A" stroke-width="1.2" fill="#FFFFFF" stroke-linecap="round" stroke-linejoin="round"></path>
                <g id="Group-4" transform="translate(43.694219, 55.252699)" stroke="#4A4A4A" stroke-width="1.2" stroke-linecap="round" stroke-linejoin="round">
                    <path d="M0.196418891,13.5047055 C12.4866295,13.5047055 18.6317348,1.11185633 18.6317348,1.11185633" id="Stroke-62"></path>
                </g>
                <path d="M63.9358025,22.8148148 C65.0492741,22.8148148 65.945679,23.7112198 65.945679,24.8246914 L65.945679,36.8839506 C65.945679,37.9974222 65.0492741,38.8938272 63.9358025,38.8938272 C62.8223309,38.8938272 61.9259259,37.9974222 61.9259259,36.8839506 L61.9259259,24.8246914 C61.9259259,23.7112198 62.8223309,22.8148148 63.9358025,22.8148148 Z" id="Path-Copy-3" fill="#404041"></path>
                <path d="M26.454321,22.8148148 C27.5677926,22.8148148 28.4641975,23.7112198 28.4641975,24.8246914 L28.4641975,36.8839506 C28.4641975,37.9974222 27.5677926,38.8938272 26.454321,38.8938272 C25.3408494,38.8938272 24.4444444,37.9974222 24.4444444,36.8839506 L24.4444444,24.8246914 C24.4444444,23.7112198 25.3408494,22.8148148 26.454321,22.8148148 Z" id="Path-Copy-4" fill="#404041"></path>
            </g>
        </g>
    </g>
</svg>