<?xml version="1.0" encoding="UTF-8"?>
<svg width="100px" height="100px" viewBox="0 0 100 100" version="1.1" xmlns="http://www.w3.org/2000/svg" xmlns:xlink="http://www.w3.org/1999/xlink">
    <!-- Generator: Sketch 46.2 (44496) - http://www.bohemiancoding.com/sketch -->
    <title>Smilie_5_Selected</title>
    <desc>Created with Sketch.</desc>
    <defs></defs>
    <g id="Page-1" stroke="none" stroke-width="1" fill="none" fill-rule="evenodd">
        <g id="Smilie_5_Selected">
            <path d="M93.5193157,49.9717058 C93.5193157,73.9270833 74.2605557,93.3466779 50.5035786,93.3466779 C26.7466015,93.3466779 7.48784149,73.9270833 7.48784149,49.9717058 C7.48784149,26.0163284 26.7466015,6.59673373 50.5035786,6.59673373 C74.2605557,6.59673373 93.5193157,26.0163284 93.5193157,49.9717058 Z" id="Stroke-53" stroke="#4A4A4A" stroke-width="1.2" fill="#FFD73F" stroke-linecap="round" stroke-linejoin="round"></path>
            <path d="M68.9388945,62.4009332 C68.9388945,62.4009332 62.7937892,74.7937824 50.5035786,74.7937824 C38.213368,74.7937824 32.0682627,62.4009332 32.0682627,62.4009332 L68.9388945,62.4009332 Z" id="Stroke-54" stroke="#4A4A4A" fill="#FFFFFF" stroke-linecap="round" stroke-linejoin="round"></path>
            <path d="M69.9358025,28.8148148 C71.0492741,28.8148148 71.945679,29.7112198 71.945679,30.8246914 L71.945679,42.8839506 C71.945679,43.9974222 71.0492741,44.8938272 69.9358025,44.8938272 C68.8223309,44.8938272 67.9259259,43.9974222 67.9259259,42.8839506 L67.9259259,30.8246914 C67.9259259,29.7112198 68.8223309,28.8148148 69.9358025,28.8148148 Z" id="Path-Copy-7" fill="#404041"></path>
            <path d="M32.454321,28.8148148 C33.5677926,28.8148148 34.4641975,29.7112198 34.4641975,30.8246914 L34.4641975,42.8839506 C34.4641975,43.9974222 33.5677926,44.8938272 32.454321,44.8938272 C31.3408494,44.8938272 30.4444444,43.9974222 30.4444444,42.8839506 L30.4444444,30.8246914 C30.4444444,29.7112198 31.3408494,28.8148148 32.454321,28.8148148 Z" id="Path-Copy-8" fill="#404041"></path>
        </g>
    </g>
</svg>