<?xml version="1.0" encoding="UTF-8"?>
<svg width="55px" height="56px" viewBox="0 0 55 56" version="1.1" xmlns="http://www.w3.org/2000/svg" xmlns:xlink="http://www.w3.org/1999/xlink">
    <!-- Generator: Sketch 45.1 (43504) - http://www.bohemiancoding.com/sketch -->
    <title>Group 11</title>
    <desc>Created with Sketch.</desc>
    <defs></defs>
    <g id="Page-1" stroke="none" stroke-width="1" fill="none" fill-rule="evenodd">
        <g id="1-copy-20" transform="translate(-659.000000, -660.000000)">
            <g id="Group-11" transform="translate(660.000000, 661.000000)">
                <path d="M53.207959,26.9826377 C53.207959,41.6825284 41.3900835,53.5990978 26.8119385,53.5990978 C12.2337935,53.5990978 0.415918018,41.6825284 0.415918018,26.9826377 C0.415918018,12.282747 12.2337935,0.366177518 26.8119385,0.366177518 C41.3900835,0.366177518 53.207959,12.282747 53.207959,26.9826377 Z" id="Stroke-57" stroke="#4A4A4A" fill="#FFFFFF" stroke-linecap="round" stroke-linejoin="round"></path>
                <path d="M19.2702184,38.4144953 L34.3536587,38.4144953" id="Stroke-58" stroke="#4A4A4A" stroke-linecap="round" stroke-linejoin="round"></path>
                <path d="M38.2333333,14 C38.9166,14 39.4666667,14.5500667 39.4666667,15.2333333 L39.4666667,22.6333333 C39.4666667,23.3166 38.9166,23.8666667 38.2333333,23.8666667 C37.5500667,23.8666667 37,23.3166 37,22.6333333 L37,15.2333333 C37,14.5500667 37.5500667,14 38.2333333,14 Z" id="Path-Copy" fill="#404041"></path>
                <path d="M15.2333333,14 C15.9166,14 16.4666667,14.5500667 16.4666667,15.2333333 L16.4666667,22.6333333 C16.4666667,23.3166 15.9166,23.8666667 15.2333333,23.8666667 C14.5500667,23.8666667 14,23.3166 14,22.6333333 L14,15.2333333 C14,14.5500667 14.5500667,14 15.2333333,14 Z" id="Path-Copy-2" fill="#404041"></path>
            </g>
        </g>
    </g>
</svg>