<?xml version="1.0" encoding="UTF-8"?>
<svg width="55px" height="56px" viewBox="0 0 55 56" version="1.1" xmlns="http://www.w3.org/2000/svg" xmlns:xlink="http://www.w3.org/1999/xlink">
    <!-- Generator: Sketch 45.1 (43504) - http://www.bohemiancoding.com/sketch -->
    <title>Group 14</title>
    <desc>Created with Sketch.</desc>
    <defs></defs>
    <g id="Page-1" stroke="none" stroke-width="1" fill="none" fill-rule="evenodd">
        <g id="1-copy-20" transform="translate(-900.000000, -660.000000)">
            <g id="Group-14" transform="translate(900.000000, 661.000000)">
                <path d="M53.7050346,26.9826377 C53.7050346,41.6825284 41.8871592,53.5990978 27.3090141,53.5990978 C12.7308691,53.5990978 0.912993644,41.6825284 0.912993644,26.9826377 C0.912993644,12.282747 12.7308691,0.366177518 27.3090141,0.366177518 C41.8871592,0.366177518 53.7050346,12.282747 53.7050346,26.9826377 Z" id="Stroke-53" stroke="#4A4A4A" fill="#FFFFFF" stroke-linecap="round" stroke-linejoin="round"></path>
                <path d="M38.6215944,34.6096636 C38.6215944,34.6096636 34.8507343,42.2143665 27.3090141,42.2143665 C19.767294,42.2143665 15.9964339,34.6096636 15.9964339,34.6096636 L38.6215944,34.6096636 Z" id="Stroke-54" stroke="#4A4A4A" stroke-linecap="round" stroke-linejoin="round"></path>
                <path d="M39.2333333,14 C39.9166,14 40.4666667,14.5500667 40.4666667,15.2333333 L40.4666667,22.6333333 C40.4666667,23.3166 39.9166,23.8666667 39.2333333,23.8666667 C38.5500667,23.8666667 38,23.3166 38,22.6333333 L38,15.2333333 C38,14.5500667 38.5500667,14 39.2333333,14 Z" id="Path-Copy-7" fill="#404041"></path>
                <path d="M16.2333333,14 C16.9166,14 17.4666667,14.5500667 17.4666667,15.2333333 L17.4666667,22.6333333 C17.4666667,23.3166 16.9166,23.8666667 16.2333333,23.8666667 C15.5500667,23.8666667 15,23.3166 15,22.6333333 L15,15.2333333 C15,14.5500667 15.5500667,14 16.2333333,14 Z" id="Path-Copy-8" fill="#404041"></path>
            </g>
        </g>
    </g>
</svg>