<?xml version="1.0" encoding="UTF-8"?>
<svg width="100px" height="100px" viewBox="0 0 100 100" version="1.1" xmlns="http://www.w3.org/2000/svg" xmlns:xlink="http://www.w3.org/1999/xlink">
    <!-- Generator: Sketch 46.2 (44496) - http://www.bohemiancoding.com/sketch -->
    <title>Selected_Star_Icon</title>
    <desc>Created with Sketch.</desc>
    <defs></defs>
    <g id="Page-1" stroke="none" stroke-width="1" fill="none" fill-rule="evenodd">
        <g id="Selected_Star_Icon" fill="#FFD73F">
            <path d="M50.0005878,9 C48.8859806,9 47.9708294,9.53009281 47.1759385,10.1984707 C46.3839807,10.8668486 45.6565529,11.7368922 44.929125,12.74234 C43.4830688,14.7503547 42.0546117,17.340319 40.6584195,19.9965449 C39.2651604,22.6556518 37.9012332,25.3781394 36.6780984,27.5590104 C35.4520305,29.7427623 34.1848981,31.413707 33.7507879,31.7190866 C33.3108114,32.0215852 31.2487881,32.6640346 28.6998574,33.1076993 C26.1538598,33.548483 23.038826,33.9489335 19.970723,34.39836 C16.90262,34.8506675 13.8931805,35.34907 11.4557105,36.0491382 C10.2355089,36.4006128 9.15903304,36.7924205 8.25268138,37.3109896 C7.34339655,37.8295586 6.52210703,38.5008175 6.17012581,39.5465984 C5.81227823,40.5894984 6.06746461,41.6122318 6.48690891,42.548537 C6.9063532,43.4877232 7.54285258,44.4153857 8.3142781,45.3862622 C9.85712913,47.3308961 11.9807492,49.4397436 14.1894314,51.5341864 C16.3951804,53.6257483 18.677192,55.7000245 20.4664299,57.4919687 C22.2498014,59.2839129 23.5228002,60.9779051 23.6811917,61.4388554 C23.8366501,61.9084485 23.8425165,63.9827247 23.4964016,66.4372849 C23.1502867,68.8947261 22.575384,71.8534506 22.0738108,74.7920086 C21.5751707,77.7305666 21.1439937,80.6345533 21.0853302,83.0833517 C21.0559984,84.3077508 21.114662,85.4169124 21.3493161,86.4137174 C21.5839703,87.4134033 22.0063477,88.3813989 22.9185657,89.0152055 C23.8278506,89.6490121 24.8837942,89.7267975 25.9397379,89.6346074 C26.9839489,89.5424174 28.0926897,89.2600853 29.2923591,88.8567538 C31.6975641,88.044329 34.4371513,86.7536682 37.1943376,85.388103 C39.9515238,84.0254188 42.7175096,82.593592 45.0464521,81.5161207 C47.3783277,80.4386495 49.4374178,79.7875572 49.9917883,79.7875572 C50.5490919,79.7875572 52.6023157,80.4386495 54.9371245,81.5161207 C57.2660669,82.593592 60.0320527,84.0225378 62.789239,85.388103 C65.5464252,86.7507873 68.2889456,88.044329 70.6912174,88.8538729 C71.89382,89.2572044 72.9996276,89.5452983 74.0467718,89.6317265 C75.1027155,89.7267975 76.1586591,89.6490121 77.067944,89.0152055 C77.9772288,88.3813989 78.4025394,87.4134033 78.6401268,86.4165983 C78.8747809,85.4226743 78.9334445,84.3135127 78.9041127,83.0891135 C78.8454492,80.6403152 78.411339,77.7363285 77.9126989,74.8006515 C77.4140588,71.8620935 76.836223,68.900488 76.4901081,66.4459278 C76.1439933,63.9884866 76.1498596,61.9142104 76.3082512,61.4474982 C76.4695759,60.9807861 77.7455078,59.2867938 79.5288794,57.5006115 C81.3181173,55.7057864 83.5971957,53.6315102 85.8058779,51.5370674 C88.0057605,49.4455055 90.1352469,47.336658 91.6810311,45.394905 C92.458323,44.4269094 93.088956,43.499247 93.5113335,42.5600608 C93.9307778,41.6237556 94.1859642,40.6010221 93.833983,39.5581222 C93.4820017,38.5123412 92.6548459,37.8410824 91.745561,37.3225133 C90.8362762,36.8039443 89.7627335,36.4121365 88.5483982,36.0635429 C86.1079951,35.3663556 83.0985556,34.8679531 80.0304526,34.4156457 C76.9652828,33.9662192 73.8473158,33.5657686 71.3013182,33.119223 C68.7494544,32.6784393 66.6903642,32.0359899 66.256254,31.7363722 C65.8162775,31.4281117 64.5550114,29.757167 63.3230771,27.5734151 C62.0999424,25.3925441 60.7418815,22.6700565 59.3456893,20.0109496 C57.9494971,17.3547237 56.52104,14.7676403 55.0720506,12.7509828 C54.3387564,11.748416 53.6171949,10.8783724 52.8223039,10.2099945 C52.0332794,9.53009281 51.115195,9 50.0005878,9 Z" id="Path-Copy"></path>
        </g>
    </g>
</svg>