<?xml version="1.0" encoding="UTF-8"?>
<svg width="100px" height="100px" viewBox="0 0 100 100" version="1.1" xmlns="http://www.w3.org/2000/svg" xmlns:xlink="http://www.w3.org/1999/xlink">
    <!-- Generator: Sketch 46.2 (44496) - http://www.bohemiancoding.com/sketch -->
    <title>Smilie_2</title>
    <desc>Created with Sketch.</desc>
    <defs></defs>
    <g id="Page-1" stroke="none" stroke-width="1" fill="none" fill-rule="evenodd">
        <g id="Smilie_2">
            <g id="Group-8" transform="translate(7.000000, 7.000000)">
                <path d="M88,44 C88,49.3452624 87.0468556,54.4679014 85.3012554,59.2072283 C79.1110278,76.0137758 62.9553091,88 44,88 C19.6994286,88 0,68.3005714 0,44 C0,19.6994286 19.6994286,0 44,0 C68.3005714,0 88,19.6994286 88,44 Z" id="Stroke-57" stroke="#4A4A4A" stroke-width="1.2" fill="#FFFFFF" stroke-linecap="round" stroke-linejoin="round"></path>
                <path d="M31,61.3033708 L56,61.3033708" id="Stroke-58" stroke="#4A4A4A" stroke-width="1.2" stroke-linecap="round" stroke-linejoin="round"></path>
                <path d="M63,21.752809 C64.108,21.752809 65,22.6347865 65,23.7303371 L65,35.5955056 C65,36.6910562 64.108,37.5730337 63,37.5730337 C61.892,37.5730337 61,36.6910562 61,35.5955056 L61,23.7303371 C61,22.6347865 61.892,21.752809 63,21.752809 Z" id="Path-Copy" fill="#404041"></path>
                <path d="M24,21.752809 C25.108,21.752809 26,22.6347865 26,23.7303371 L26,35.5955056 C26,36.6910562 25.108,37.5730337 24,37.5730337 C22.892,37.5730337 22,36.6910562 22,35.5955056 L22,23.7303371 C22,22.6347865 22.892,21.752809 24,21.752809 Z" id="Path-Copy-2" fill="#404041"></path>
            </g>
        </g>
    </g>
</svg>