<?xml version="1.0" encoding="UTF-8"?>
<svg width="100px" height="100px" viewBox="0 0 100 100" version="1.1" xmlns="http://www.w3.org/2000/svg" xmlns:xlink="http://www.w3.org/1999/xlink">
    <!-- Generator: Sketch 46.2 (44496) - http://www.bohemiancoding.com/sketch -->
    <title>Smilie_3_Selected</title>
    <desc>Created with Sketch.</desc>
    <defs></defs>
    <g id="Page-1" stroke="none" stroke-width="1" fill="none" fill-rule="evenodd">
        <g id="Smilie_3_Selected">
            <path d="M92.9063746,49.9717058 C92.9063746,73.9270833 73.6476145,93.3466779 49.8906375,93.3466779 C26.1336604,93.3466779 6.87490035,73.9270833 6.87490035,49.9717058 C6.87490035,26.0163284 26.1336604,6.59673373 49.8906375,6.59673373 C73.6476145,6.59673373 92.9063746,26.0163284 92.9063746,49.9717058 Z" id="Stroke-61" stroke="#4A4A4A" stroke-width="1.2" fill="#FFD73F" stroke-linecap="round" stroke-linejoin="round"></path>
            <g id="Group-4" transform="translate(49.694219, 61.252699)" stroke="#4A4A4A" stroke-width="1.2" stroke-linecap="round" stroke-linejoin="round">
                <path d="M0.196418891,13.5047055 C12.4866295,13.5047055 18.6317348,1.11185633 18.6317348,1.11185633" id="Stroke-62"></path>
            </g>
            <path d="M69.9358025,28.8148148 C71.0492741,28.8148148 71.945679,29.7112198 71.945679,30.8246914 L71.945679,42.8839506 C71.945679,43.9974222 71.0492741,44.8938272 69.9358025,44.8938272 C68.8223309,44.8938272 67.9259259,43.9974222 67.9259259,42.8839506 L67.9259259,30.8246914 C67.9259259,29.7112198 68.8223309,28.8148148 69.9358025,28.8148148 Z" id="Path-Copy-3" fill="#404041"></path>
            <path d="M32.454321,28.8148148 C33.5677926,28.8148148 34.4641975,29.7112198 34.4641975,30.8246914 L34.4641975,42.8839506 C34.4641975,43.9974222 33.5677926,44.8938272 32.454321,44.8938272 C31.3408494,44.8938272 30.4444444,43.9974222 30.4444444,42.8839506 L30.4444444,30.8246914 C30.4444444,29.7112198 31.3408494,28.8148148 32.454321,28.8148148 Z" id="Path-Copy-4" fill="#404041"></path>
        </g>
    </g>
</svg>