<?xml version="1.0" encoding="UTF-8"?>
<svg width="100px" height="100px" viewBox="0 0 100 100" version="1.1" xmlns="http://www.w3.org/2000/svg" xmlns:xlink="http://www.w3.org/1999/xlink">
    <!-- Generator: Sketch 46.2 (44496) - http://www.bohemiancoding.com/sketch -->
    <title>smiley_meh_icon</title>
    <desc>Created with Sketch.</desc>
    <defs></defs>
    <g id="Page-1" stroke="none" stroke-width="1" fill="none" fill-rule="evenodd">
        <g id="smiley_meh_icon">
            <path d="M93.4409284,50.1945886 C93.4409284,74.3761435 74.0003346,93.9790904 50.0190534,93.9790904 C26.0377721,93.9790904 6.59717836,74.3761435 6.59717836,50.1945886 C6.59717836,26.0130338 26.0377721,6.41008689 50.0190534,6.41008689 C74.0003346,6.41008689 93.4409284,26.0130338 93.4409284,50.1945886 Z" id="Stroke-61" stroke="#4A4A4A" stroke-width="1.2" fill="#FFFFFF" stroke-linecap="round" stroke-linejoin="round"></path>
            <g id="Group-4" transform="translate(49.820780, 61.582092)" stroke="#4A4A4A" stroke-width="1.2" stroke-linecap="round" stroke-linejoin="round">
                <path d="M0.198273402,13.6322117 C12.6045234,13.6322117 18.8076484,1.12235405 18.8076484,1.12235405" id="Stroke-62"></path>
            </g>
            <path d="M70.253477,28.8379425 C71.3774616,28.8379425 72.2823301,29.7428109 72.2823301,30.8667955 L72.2823301,43.0399136 C72.2823301,44.1638982 71.3774616,45.0687666 70.253477,45.0687666 C69.1294925,45.0687666 68.224624,44.1638982 68.224624,43.0399136 L68.224624,30.8667955 C68.224624,29.7428109 69.1294925,28.8379425 70.253477,28.8379425 Z" id="Path-Copy-3" fill="#404041"></path>
            <path d="M32.41811,28.8379425 C33.5420945,28.8379425 34.446963,29.7428109 34.446963,30.8667955 L34.446963,43.0399136 C34.446963,44.1638982 33.5420945,45.0687666 32.41811,45.0687666 C31.2941254,45.0687666 30.3892569,44.1638982 30.3892569,43.0399136 L30.3892569,30.8667955 C30.3892569,29.7428109 31.2941254,28.8379425 32.41811,28.8379425 Z" id="Path-Copy-4" fill="#404041"></path>
        </g>
    </g>
</svg>