<?xml version="1.0" encoding="utf-8"?>
<!-- Generator: Adobe Illustrator 19.0.0, SVG Export Plug-In . SVG Version: 6.00 Build 0)  -->
<svg version="1.1" id="Layer_1" xmlns="http://www.w3.org/2000/svg" xmlns:xlink="http://www.w3.org/1999/xlink" x="0px" y="0px"
	 viewBox="-449 451 100 100" style="enable-background:new -449 451 100 100;" xml:space="preserve">
<style type="text/css">
	.st0{fill:#FFD73F;stroke:#4A4A4A;stroke-width:1.2;stroke-linecap:round;stroke-linejoin:round;}
	.st1{fill:none;stroke:#4A4A4A;stroke-width:1.2;stroke-linecap:round;stroke-linejoin:round;}
	.st2{fill:#404041;}
</style>
<title>smiley_meh_icon_Selected</title>
<desc>Created with Sketch.</desc>
<g id="Page-1">
	<g id="smiley_meh_icon_Selected">
		<g id="Group" transform="translate(6.000000, 6.000000)">
			<path id="Stroke-61" class="st0" d="M-356.7,495c0,26.7-21.6,48.3-48.3,48.3s-48.3-21.6-48.3-48.3s21.6-48.3,48.3-48.3
				S-356.7,468.3-356.7,495z"/>
			<g id="Group-4" transform="translate(43.820780, 55.582092)">
				<path id="Stroke-62" class="st1" d="M-448.8,467c13.8,0,20.7-13.8,20.7-13.8"/>
			</g>
			<path id="Path-Copy-3" class="st2" d="M-382.5,471.4c1.3,0,2.3,1,2.3,2.2v13.4c0,1.2-1,2.2-2.3,2.2c-1.3,0-2.3-1-2.3-2.2v-13.4
				C-384.7,472.4-383.7,471.4-382.5,471.4z"/>
			<path id="Path-Copy-4" class="st2" d="M-424.6,471.4c1.3,0,2.3,1,2.3,2.2v13.4c0,1.2-1,2.2-2.3,2.2c-1.3,0-2.3-1-2.3-2.2v-13.4
				C-426.8,472.4-425.8,471.4-424.6,471.4z"/>
		</g>
	</g>
</g>
</svg>
