<?xml version="1.0" encoding="UTF-8"?>
<svg width="100px" height="100px" viewBox="0 0 100 100" version="1.1" xmlns="http://www.w3.org/2000/svg" xmlns:xlink="http://www.w3.org/1999/xlink">
    <!-- Generator: Sketch 46.2 (44496) - http://www.bohemiancoding.com/sketch -->
    <title>Smilie_4_Selected</title>
    <desc>Created with Sketch.</desc>
    <defs></defs>
    <g id="Page-1" stroke="none" stroke-width="1" fill="none" fill-rule="evenodd">
        <g id="Smilie_4_Selected">
            <path d="M93.1763909,49.9717058 C93.1763909,73.9270833 73.9176309,93.3466779 50.1606538,93.3466779 C26.4036768,93.3466779 7.14491674,73.9270833 7.14491674,49.9717058 C7.14491674,26.0163284 26.4036768,6.59673373 50.1606538,6.59673373 C73.9176309,6.59673373 93.1763909,26.0163284 93.1763909,49.9717058 Z" id="Stroke-49" stroke="#404041" stroke-width="1.2" fill="#FFD73F" stroke-linecap="round" stroke-linejoin="round"></path>
            <path d="M31.7253379,62.4009332 C31.7253379,62.4009332 37.8704432,74.7937824 50.1606538,74.7937824 C62.4508644,74.7937824 68.5959697,62.4009332 68.5959697,62.4009332" id="Stroke-50" stroke="#4A4A4A" stroke-width="1.2" stroke-linecap="round" stroke-linejoin="round"></path>
            <path d="M68.3061728,28.8148148 C69.4196444,28.8148148 70.3160494,29.7112198 70.3160494,30.8246914 L70.3160494,42.8839506 C70.3160494,43.9974222 69.4196444,44.8938272 68.3061728,44.8938272 C67.1927012,44.8938272 66.2962963,43.9974222 66.2962963,42.8839506 L66.2962963,30.8246914 C66.2962963,29.7112198 67.1927012,28.8148148 68.3061728,28.8148148 Z" id="Path-Copy-5" fill="#404041"></path>
            <path d="M30.8246914,28.8148148 C31.938163,28.8148148 32.8345679,29.7112198 32.8345679,30.8246914 L32.8345679,42.8839506 C32.8345679,43.9974222 31.938163,44.8938272 30.8246914,44.8938272 C29.7112198,44.8938272 28.8148148,43.9974222 28.8148148,42.8839506 L28.8148148,30.8246914 C28.8148148,29.7112198 29.7112198,28.8148148 30.8246914,28.8148148 Z" id="Path-Copy-6" fill="#404041"></path>
        </g>
    </g>
</svg>