<?xml version="1.0" encoding="utf-8"?>
<!-- Generator: Adobe Illustrator 19.0.0, SVG Export Plug-In . SVG Version: 6.00 Build 0)  -->
<svg version="1.1" id="Layer_1" xmlns="http://www.w3.org/2000/svg" xmlns:xlink="http://www.w3.org/1999/xlink" x="0px" y="0px"
	 viewBox="-449 451 100 100" style="enable-background:new -449 451 100 100;" xml:space="preserve">
<style type="text/css">
	.st0{fill:#FFD73F;stroke:#4A4A4A;stroke-width:1.2;stroke-linecap:round;stroke-linejoin:round;}
	.st1{fill:none;stroke:#4A4A4A;stroke-width:1.2;stroke-linecap:round;stroke-linejoin:round;}
	.st2{fill:#404041;}
</style>
<title>smiley_Straightface_icon_Selected</title>
<desc>Created with Sketch.</desc>
<g id="Page-1">
	<g id="smiley_Straightface_icon_Selected">
		<g id="Group-3" transform="translate(6.000000, 6.000000)">
			<path id="Stroke-57" class="st0" d="M-357.1,495c0,5.9-1,11.5-2.9,16.7c-6.7,18.5-24.3,31.6-45,31.6c-26.5,0-47.9-21.6-47.9-48.3
				s21.4-48.3,47.9-48.3C-378.5,446.7-357.1,468.3-357.1,495z"/>
			<path id="Stroke-58" class="st1" d="M-418.7,514.4h27.4"/>
			<path id="Path-Copy" class="st2" d="M-384.3,471.4c1.2,0,2.2,1,2.2,2.2v13.4c0,1.2-1,2.2-2.2,2.2s-2.2-1-2.2-2.2v-13.4
				C-386.5,472.4-385.5,471.4-384.3,471.4z"/>
			<path id="Path-Copy-2" class="st2" d="M-426,471.4c1.2,0,2.2,1,2.2,2.2v13.4c0,1.2-1,2.2-2.2,2.2c-1.2,0-2.2-1-2.2-2.2v-13.4
				C-428.3,472.4-427.3,471.4-426,471.4z"/>
		</g>
	</g>
</g>
</svg>
