<?xml version="1.0" encoding="UTF-8"?>
<svg width="100px" height="100px" viewBox="0 0 100 100" version="1.1" xmlns="http://www.w3.org/2000/svg" xmlns:xlink="http://www.w3.org/1999/xlink">
    <!-- Generator: Sketch 46.2 (44496) - http://www.bohemiancoding.com/sketch -->
    <title>Smilie_1</title>
    <desc>Created with Sketch.</desc>
    <defs></defs>
    <g id="Page-1" stroke="none" stroke-width="1" fill="none" fill-rule="evenodd">
        <g id="Smilie_1">
            <g id="Group-7" transform="translate(6.000000, 7.000000)">
                <path d="M88,44 C88,68.3005714 68.3005714,88 44,88 C19.6994286,88 0,68.3005714 0,44 C0,19.6994286 19.6994286,0 44,0 C68.3005714,0 88,19.6994286 88,44 Z" id="Stroke-65" stroke="#4A4A4A" stroke-width="1.2" fill="#FFFFFF" stroke-linecap="round" stroke-linejoin="round"></path>
                <g id="Group-6" transform="translate(31.000000, 56.359551)" stroke="#4A4A4A" stroke-width="1.2" stroke-linecap="round" stroke-linejoin="round">
                    <path d="M0.66129492,6.10832232 C0.66129492,6.10832232 6.89771734,0.120765977 13.1341398,0.120765977 C19.3705622,0.120765977 25.6069846,6.10832232 25.6069846,6.10832232" id="Stroke-66"></path>
                </g>
                <path d="M62,21.752809 C63.108,21.752809 64,22.6347865 64,23.7303371 L64,35.5955056 C64,36.6910562 63.108,37.5730337 62,37.5730337 C60.892,37.5730337 60,36.6910562 60,35.5955056 L60,23.7303371 C60,22.6347865 60.892,21.752809 62,21.752809 Z" id="Path" fill="#404041"></path>
                <path d="M25,21.752809 C26.108,21.752809 27,22.6347865 27,23.7303371 L27,35.5955056 C27,36.6910562 26.108,37.5730337 25,37.5730337 C23.892,37.5730337 23,36.6910562 23,35.5955056 L23,23.7303371 C23,22.6347865 23.892,21.752809 25,21.752809 Z" id="Path" fill="#404041"></path>
            </g>
        </g>
    </g>
</svg>