<?xml version="1.0" encoding="utf-8"?>
<!-- Generator: Adobe Illustrator 19.0.0, SVG Export Plug-In . SVG Version: 6.00 Build 0)  -->
<svg version="1.1" id="Layer_1" xmlns="http://www.w3.org/2000/svg" xmlns:xlink="http://www.w3.org/1999/xlink" x="0px" y="0px"
	 viewBox="-449 451 100 100" style="enable-background:new -449 451 100 100;" xml:space="preserve">
<style type="text/css">
	.st0{fill:#FFD73F;stroke:#4A4A4A;stroke-width:1.2;stroke-linecap:round;stroke-linejoin:round;}
	.st1{fill:none;stroke:#4A4A4A;stroke-width:1.2;stroke-linecap:round;stroke-linejoin:round;}
	.st2{fill:#404041;}
</style>
<title>smiley_Sad_icon_Selected</title>
<desc>Created with Sketch.</desc>
<g id="Page-1">
	<g id="smiley_Sad_icon_Selected">
	</g>
	<g id="Group-2" transform="translate(6.000000, 5.000000)">
		<path id="Stroke-65" class="st0" d="M-358.6,495c0,26.1-21,47.3-46.9,47.3s-46.9-21.2-46.9-47.3c0-26.1,21-47.3,46.9-47.3
			S-358.6,468.8-358.6,495z"/>
		<g id="Group-6" transform="translate(30.554599, 55.252699)">
			<path id="Stroke-66" class="st1" d="M-449.5,460c0,0,6.7-6.8,13.4-6.8c6.7,0,13.4,6.8,13.4,6.8"/>
		</g>
		<path id="Path" class="st2" d="M-386.8,471.9c1.2,0,2.2,1,2.2,2.2v13.2c0,1.2-1,2.2-2.2,2.2c-1.2,0-2.2-1-2.2-2.2v-13.2
			C-389,472.9-388,471.9-386.8,471.9z"/>
		<path id="Path_1_" class="st2" d="M-425.9,471.9c1.2,0,2.2,1,2.2,2.2v13.2c0,1.2-1,2.2-2.2,2.2s-2.2-1-2.2-2.2v-13.2
			C-428.1,472.9-427.1,471.9-425.9,471.9z"/>
	</g>
</g>
</svg>
