<?xml version="1.0" encoding="UTF-8"?>
<svg width="100px" height="100px" viewBox="0 0 100 100" version="1.1" xmlns="http://www.w3.org/2000/svg" xmlns:xlink="http://www.w3.org/1999/xlink">
    <!-- Generator: Sketch 46.2 (44496) - http://www.bohemiancoding.com/sketch -->
    <title>Star selected</title>
    <desc>Created with Sketch.</desc>
    <defs></defs>
    <g id="Page-1" stroke="none" stroke-width="1" fill="none" fill-rule="evenodd">
        <g id="Star-selected" fill="#FFD73F">
            <path d="M50.0006078,8.29166667 C48.8480027,8.29166667 47.9016531,8.83983083 47.0796636,9.53099433 C46.2607073,10.2221578 45.5084808,11.1218621 44.7562542,12.1615865 C43.2609007,14.2380561 41.7837461,16.9163147 40.3399565,19.6630938 C38.8992,22.4128521 37.4887752,25.2281517 36.2239427,27.4833706 C34.956077,29.7415686 33.6457469,31.4694773 33.1968375,31.7852676 C32.7418618,32.0980786 30.6095422,32.7624298 27.9737161,33.2212193 C25.3409232,33.6770297 22.1196951,34.091132 18.9469976,34.5558799 C15.7743002,35.0236069 12.6622662,35.5390004 10.1417007,36.2629346 C8.8799013,36.6263912 7.76672735,37.0315561 6.82947734,37.5678036 C5.88919416,38.1040512 5.03990613,38.7981938 4.67592555,39.8796264 C4.30587862,40.9580798 4.56976454,42.0156791 5.00350807,42.9839038 C5.4372516,43.9551077 6.09544983,44.914395 6.89317394,45.9183696 C8.48862217,47.9292979 10.6846384,50.1100379 12.9686165,52.2758822 C15.2495615,54.4387473 17.609369,56.5837375 19.4596036,58.4367707 C21.3037719,60.2898039 22.6201684,62.0415459 22.7839596,62.5182103 C22.9447177,63.0038123 22.9507841,65.1488025 22.5928698,67.6870409 C22.2349556,70.2282584 21.640454,73.2878486 21.1217816,76.3265847 C20.6061425,79.3653208 20.1602662,82.3683071 20.0996028,84.9005871 C20.0692711,86.1667272 20.1299345,87.3137011 20.3725883,88.3444881 C20.615242,89.3782542 21.0520187,90.3792496 21.995335,91.0346633 C22.9356182,91.6900769 24.02756,91.7705141 25.1195017,91.6751812 C26.1993108,91.5798483 27.3458496,91.2878913 28.5864168,90.8708098 C31.0736174,90.0306887 33.9065997,88.6960281 36.7577809,87.2839096 C39.6089621,85.8747702 42.4692429,84.3941311 44.8775811,83.2799279 C47.2889525,82.1657246 49.4182389,81.4924361 49.9915083,81.4924361 C50.5678109,81.4924361 52.691031,82.1657246 55.1054355,83.2799279 C57.5137737,84.3941311 60.3740545,85.871791 63.2252357,87.2839096 C66.076417,88.693049 68.9124324,90.0306887 71.3965999,90.8678307 C72.6402002,91.2849121 73.7837059,91.5828274 74.8665481,91.672202 C75.9584899,91.7705141 77.0504316,91.6900769 77.9907148,91.0346633 C78.930998,90.3792496 79.3708078,89.3782542 79.6164947,88.3474672 C79.8591485,87.3196594 79.9198119,86.1726855 79.8894802,84.9065454 C79.8288167,82.3742654 79.3799073,79.3712791 78.8642682,76.3355221 C78.348629,73.296786 77.7510942,70.2342167 77.39318,67.6959783 C77.0352658,65.1547608 77.0413321,63.0097706 77.2051234,62.5271478 C77.3719478,62.044525 78.6913774,60.292783 80.5355457,58.4457081 C82.3857803,56.5896958 84.7425546,54.4447056 87.0265328,52.2788613 C89.3014114,50.1159962 91.503494,47.9352562 93.1019754,45.927307 C93.9057658,44.9263116 94.5578977,43.9670243 94.9946744,42.9958205 C95.428418,42.0275957 95.6923039,40.9699964 95.3283233,39.891543 C94.9643427,38.8101104 94.1089883,38.1159678 93.1687052,37.5797202 C92.228422,37.0434727 91.1182812,36.6383079 89.8625482,36.2778303 C87.3389495,35.5568753 84.2269155,35.0414818 81.054218,34.5737548 C77.8845538,34.1090069 74.6602924,33.6949047 72.0274995,33.2331359 C69.3886403,32.7773255 67.2593539,32.1129744 66.8104445,31.8031425 C66.3554688,31.4843731 65.051205,29.7564643 63.777273,27.4982663 C62.5124404,25.2430475 61.108082,22.4277479 59.6642924,19.6779896 C58.2205027,16.9312105 56.7433482,14.2559311 55.2449614,12.1705239 C54.4866685,11.1337787 53.7405083,10.2340745 52.9185189,9.54291094 C52.1025957,8.83983083 51.153213,8.29166667 50.0006078,8.29166667 Z" id="Path-Copy"></path>
        </g>
    </g>
</svg>