<?xml version="1.0" encoding="UTF-8"?>
<svg width="100px" height="100px" viewBox="0 0 100 100" version="1.1" xmlns="http://www.w3.org/2000/svg" xmlns:xlink="http://www.w3.org/1999/xlink">
    <!-- Generator: Sketch 46.2 (44496) - http://www.bohemiancoding.com/sketch -->
    <title>Yes/no unselected state</title>
    <desc>Created with Sketch.</desc>
    <defs></defs>
    <g id="Page-1" stroke="none" stroke-width="1" fill="none" fill-rule="evenodd">
        <g id="Yes/no-unselected-state">
            <g id="Group-Copy-2" transform="translate(51.000000, 51.000000) scale(-1, -1) translate(-51.000000, -51.000000) translate(11.000000, 11.000000)">
                <g id="entypo/thumbsup" transform="translate(40.000000, 40.000000) scale(-1, -1) translate(-40.000000, -40.000000) ">
                    <rect id="Rectangle-path" x="0" y="0" width="80" height="80"></rect>
                    <path d="M52.72,30.788 C52.2,29.38 66.74,16.392 58.256,5.872 C56.268,3.408 49.54,17.656 39.976,24.104 C34.704,27.664 22.428,35.236 22.428,39.42 L22.428,66.508 C22.428,71.544 41.888,76.876 56.68,76.876 C62.096,76.876 69.948,42.912 69.948,37.516 C69.952,32.104 53.244,32.2 52.72,30.788 L52.72,30.788 Z" id="Shape" stroke="#4A4A4A" stroke-width="1.2" fill="#FFFFFF" fill-rule="evenodd"></path>
                    <path d="M10.4,38 L10.4,66" id="Line" stroke="#4A4A4A" stroke-width="1.2" stroke-linecap="round"></path>
                </g>
            </g>
        </g>
    </g>
</svg>